<svg width="50" height="54" viewBox="0 0 50 54" fill="none" xmlns="http://www.w3.org/2000/svg">
<g clip-path="url(#clip0_101_1510)">
<path d="M49.317 41.6623L43.3759 35.7331C43.1744 35.5318 40.0201 38.6818 40.2217 38.8813L46.1627 44.8101C46.5976 45.2444 47.1693 45.4623 47.741 45.4623C48.3124 45.4623 48.8821 45.2444 49.3193 44.8101C50.1914 43.9399 50.1914 42.5305 49.3193 41.6623H49.317Z" fill="url(#paint0_linear_101_1510)"/>
<path d="M42.1797 21.1442C39.9649 18.9337 37.0227 17.7173 33.8893 17.7173C30.756 17.7173 27.8139 18.9337 25.5989 21.1442C23.3839 23.3547 22.165 26.293 22.165 29.4179C22.165 32.5429 23.3839 35.4811 25.5989 37.6895C27.8139 39.9003 30.756 41.1164 33.8893 41.1164C36.3166 41.1164 38.6282 40.3824 40.5785 39.0255C41.1436 38.6313 41.6816 38.1866 42.1797 37.6895C42.6777 37.1925 43.1235 36.6556 43.5184 36.0914C44.8781 34.1452 45.6138 31.8382 45.6138 29.4158C45.6138 26.2909 44.3948 23.3526 42.1797 21.1421V21.1442ZM33.8893 36.664C31.9496 36.664 30.1255 35.9111 28.7554 34.5416C27.3831 33.172 26.6286 31.3537 26.6286 29.4179C26.6286 27.4821 27.3831 25.6617 28.7554 24.2943C30.1276 22.9248 31.9496 22.1719 33.8893 22.1719C35.829 22.1719 37.6531 22.9248 39.0235 24.2943C40.3955 25.6638 41.1502 27.4821 41.1502 29.4179C41.1502 31.3537 40.3955 33.1741 39.0235 34.5416C37.651 35.9111 35.829 36.664 33.8893 36.664Z" fill="url(#paint1_linear_101_1510)"/>
<path d="M40.7533 13.2728C42.9893 13.0861 44.6494 11.1272 44.4622 8.89577C44.2754 6.66426 42.3126 5.00742 40.0765 5.19411L32.0277 5.86521C32.0277 5.86521 32.0172 5.86101 32.0172 5.85684L31.9143 4.61735C31.6999 2.04609 29.4156 0.118705 26.8391 0.332626L16.0878 1.22816C13.5114 1.44208 11.5801 3.72181 11.7945 6.29305L11.8974 7.53254C11.8974 7.53254 11.8932 7.54303 11.889 7.54303L3.94534 8.20576C1.74718 8.38825 0.0113352 10.2527 0.120613 12.4527C0.236196 14.7534 2.23472 16.4837 4.51696 16.2928C4.51696 16.2928 40.3769 13.3168 40.7533 13.2728Z" fill="url(#paint2_linear_101_1510)"/>
<path d="M6.01611 18.967L8.59673 50.1263C8.77115 52.2277 10.5322 53.8469 12.6443 53.8469H33.7286C35.849 53.8469 37.6122 52.2192 37.7782 50.1093L38.3393 42.9975C33.157 44.7406 27.1887 43.4989 23.1265 39.2727C17.6752 33.6018 17.7467 24.5458 23.2779 18.9566C23.8599 18.3693 24.4799 17.8429 25.1272 17.3752" fill="url(#paint3_linear_101_1510)"/>
</g>
<defs>
<linearGradient id="paint0_linear_101_1510" x1="45.093" y1="35.7239" x2="45.093" y2="45.4623" gradientUnits="userSpaceOnUse">
<stop stop-color="#10D07D"/>
<stop offset="1" stop-color="#46F0C5"/>
</linearGradient>
<linearGradient id="paint1_linear_101_1510" x1="33.8893" y1="17.7173" x2="33.8893" y2="41.1164" gradientUnits="userSpaceOnUse">
<stop stop-color="#10D07D"/>
<stop offset="1" stop-color="#46F0C5"/>
</linearGradient>
<linearGradient id="paint2_linear_101_1510" x1="22.2962" y1="0.316406" x2="22.2962" y2="16.3072" gradientUnits="userSpaceOnUse">
<stop stop-color="#10D07D"/>
<stop offset="1" stop-color="#30DA9C"/>
</linearGradient>
<linearGradient id="paint3_linear_101_1510" x1="22.1777" y1="17.3752" x2="22.1777" y2="53.8469" gradientUnits="userSpaceOnUse">
<stop stop-color="#10D07D"/>
<stop offset="1" stop-color="#30DA9C"/>
</linearGradient>
<clipPath id="clip0_101_1510">
<rect width="50" height="54" fill="white"/>
</clipPath>
</defs>
</svg>
