<svg width="117" height="30" viewBox="0 0 117 30" fill="none" xmlns="http://www.w3.org/2000/svg">
<g clip-path="url(#clip0_105_5276)">
<path d="M8.81476 28.6801C7.67098 28.1847 6.67806 27.5048 5.83823 26.6379V26.5996C5.78645 27.0072 5.70539 27.426 5.59056 27.8583C5.47574 28.2906 5.38117 28.6598 5.30462 28.9638H0V0H6.67806V10.7263C7.44133 10.0644 8.32393 9.55552 9.33037 9.19978C10.3346 8.84403 11.422 8.66616 12.5928 8.66616H12.8608C14.2342 8.66616 15.4928 8.91383 16.6389 9.40917C17.7826 9.90451 18.7688 10.5912 19.5951 11.4693C20.4214 12.3474 21.0699 13.3899 21.5404 14.599C22.011 15.808 22.2474 17.1117 22.2474 18.5099V19.5794C22.2474 20.9776 22.011 22.2835 21.5404 23.4903C21.0699 24.6994 20.4214 25.7418 19.5951 26.6199C18.7688 27.498 17.7826 28.1847 16.6389 28.6801C15.4951 29.1754 14.2342 29.4231 12.8608 29.4231H12.5928C11.2194 29.4231 9.9608 29.1754 8.81476 28.6801ZM11.2194 24.7309C11.8048 24.7309 12.3564 24.598 12.8788 24.3301C13.3989 24.0622 13.8447 23.6952 14.2139 23.2246C14.5832 22.754 14.8759 22.1821 15.092 21.5067C15.3082 20.8335 15.4163 20.1152 15.4163 19.352V18.7418C15.4163 17.9785 15.3082 17.2603 15.092 16.5848C14.8759 15.9116 14.5832 15.3397 14.2139 14.8691C13.8447 14.3986 13.3989 14.0293 12.8788 13.7614C12.3564 13.4935 11.8048 13.3606 11.2194 13.3606H10.8006C10.2152 13.3606 9.6681 13.4935 9.15925 13.7614C8.6504 14.0293 8.21811 14.3986 7.86236 14.8691C7.50662 15.3397 7.22068 15.9116 7.00453 16.5848C6.78838 17.2603 6.68031 17.9785 6.68031 18.7418V19.352C6.68031 20.1152 6.78163 20.8335 6.98652 21.5067C7.18916 22.1821 7.4751 22.754 7.84435 23.2246C8.2136 23.6952 8.65265 24.0644 9.1615 24.3301C9.67035 24.598 10.2175 24.7309 10.8029 24.7309H11.2217H11.2194Z" fill="#2C352F"/>
<path d="M25.2028 5.64685C24.5296 5.06145 24.1919 4.28692 24.1919 3.31876C24.1919 2.3506 24.5296 1.55806 25.2028 0.934388C25.876 0.310712 26.7609 0 27.8551 0C28.9494 0 29.9288 0.310712 30.6403 0.934388C31.3518 1.55806 31.7098 2.35286 31.7098 3.31876C31.7098 4.28467 31.3608 5.06145 30.6606 5.64685C29.9603 6.23225 29.0395 6.52495 27.8934 6.52495C26.7474 6.52495 25.876 6.23225 25.2028 5.64685ZM24.6107 8.81476H31.2887V28.966H24.6107V8.81476Z" fill="#2C352F"/>
<path d="M34.6455 9.12552H39.9119C40.065 9.53305 40.2113 10.0667 40.3509 10.7286C40.4905 11.3906 40.5603 11.9377 40.5603 12.37C41.6275 11.0979 42.8231 10.1635 44.147 9.56457C45.4686 8.96791 46.7655 8.66846 48.0399 8.66846H48.1164C50.3545 8.66846 52.0837 9.34392 53.3062 10.6903C54.5266 12.039 55.1367 13.9213 55.1367 16.3372V28.9661H48.497V17.7872C48.497 16.5668 48.256 15.6437 47.772 15.02C47.2879 14.3964 46.5134 14.0857 45.4439 14.0857H45.2908C44.6806 14.0857 44.1267 14.2072 43.6314 14.4482C43.1361 14.6913 42.715 15.02 42.3728 15.4411C42.0283 15.8599 41.7626 16.3439 41.5712 16.8911C41.3799 17.4382 41.2853 18.0303 41.2853 18.6653V28.9661H34.6455V9.12552Z" fill="#2C352F"/>
<path d="M78.2959 23.7807L78.5728 28.545C77.3412 29.2204 76.0714 29.4591 74.6416 29.4591C72.0614 29.4591 70.8298 28.4279 70.5528 26.719C69.0848 28.5855 67.0585 29.5379 64.4399 29.5379C60.1125 29.5379 56.9355 26.442 56.9355 21.0429C56.9355 13.9753 61.0649 8.65716 66.9009 8.65716C69.7986 8.65716 71.6651 9.60956 72.7368 11.3567L74.9613 0H81.3129L76.9067 22.5897C76.7468 23.5826 76.9855 23.9001 77.5821 23.9001C77.9401 23.9001 78.0977 23.8595 78.2959 23.7807ZM70.7915 21.4391L71.5458 17.4697C71.3859 15.3645 70.0778 14.1734 68.0514 14.1734C64.8745 14.1734 63.4065 17.231 63.4065 20.0499C63.4065 22.709 64.7169 24.0194 66.9797 24.0194C68.7651 24.0194 70.0372 23.067 70.7915 21.4391Z" fill="#2C352F"/>
<path d="M95.5622 22.3916L98.2213 26.7596C96.1566 28.3875 93.5764 29.538 89.6857 29.538C83.8903 29.538 80.1978 26.5998 80.1978 20.685C80.1978 14.0542 84.4464 8.65503 91.989 8.65503C96.7533 8.65503 99.5317 10.9966 99.5317 14.6103C99.5317 19.334 95.2448 21.4775 86.9456 21.8355C87.3036 23.4228 88.3753 24.1388 90.5976 24.1388C92.266 24.1388 93.9726 23.6615 95.5599 22.3916H95.5622ZM86.9861 17.866C90.9556 17.5891 93.3377 17.1523 93.3377 15.2453C93.3377 14.2523 92.7028 13.6962 91.5117 13.6962C89.4471 13.6962 87.6211 15.1259 86.9861 17.8638V17.866Z" fill="#2C352F"/>
<path d="M117 8.97244L114.894 15.4839C114.3 15.2857 113.902 15.1664 112.99 15.1664C110.727 15.1664 109.14 16.5173 108.345 18.6608L106.359 28.9436H100.007L102.549 15.8036C102.747 14.8895 102.351 14.572 101.874 14.572C101.556 14.572 101.279 14.6508 101.16 14.7319L100.921 9.92709C101.953 9.37096 103.263 8.97469 105.01 8.97469C107.75 8.97469 109.099 10.1658 109.338 11.9129C110.488 10.1275 112.355 8.69775 115.054 8.69775C115.849 8.69775 116.324 8.77656 117 8.97469V8.97244Z" fill="#2C352F"/>
</g>
<defs>
<clipPath id="clip0_105_5276">
<rect width="117" height="30" fill="white"/>
</clipPath>
</defs>
</svg>
