<svg width="509" height="499" viewBox="0 0 509 499" fill="none" xmlns="http://www.w3.org/2000/svg">
<g clip-path="url(#clip0_40_4316)">
<path fill-rule="evenodd" clip-rule="evenodd" d="M253.742 0C113.429 0 0 114.354 0 255.826C0 368.912 72.6779 464.637 173.501 498.517C186.107 501.064 190.724 493.012 190.724 486.239C190.724 480.308 190.309 459.979 190.309 438.798C119.724 454.048 105.025 408.302 105.025 408.302C93.682 378.653 76.8746 371.032 76.8746 371.032C53.7722 355.361 78.5574 355.361 78.5574 355.361C104.184 357.055 117.631 381.621 117.631 381.621C140.313 420.584 176.862 409.575 191.566 402.797C193.664 386.278 200.39 374.843 207.532 368.491C151.235 362.56 92.0044 340.536 92.0044 242.27C92.0044 214.315 102.08 191.444 118.046 173.657C115.527 167.305 106.703 141.04 120.571 105.887C120.571 105.887 141.995 99.1087 190.304 132.147C210.986 126.547 232.316 123.698 253.742 123.674C275.166 123.674 297.007 126.642 317.175 132.147C365.488 99.1087 386.913 105.887 386.913 105.887C400.78 141.04 391.951 167.305 389.432 173.657C405.818 191.444 415.479 214.315 415.479 242.27C415.479 340.536 356.248 362.134 299.531 368.491C308.776 376.537 316.754 391.783 316.754 415.927C316.754 450.233 316.338 477.766 316.338 486.234C316.338 493.012 320.961 501.064 333.561 498.522C434.385 464.631 507.063 368.912 507.063 255.826C507.478 114.354 393.634 0 253.742 0Z" fill="white"/>
</g>
<defs>
<clipPath id="clip0_40_4316">
<rect width="509" height="499" fill="white"/>
</clipPath>
</defs>
</svg>
