<svg width="131" height="128" viewBox="0 0 131 128" fill="none" xmlns="http://www.w3.org/2000/svg">
<g clip-path="url(#clip0_124_4297)">
<path d="M107.802 0H23.1981C10.3861 0 0 10.4086 0 23.2482V104.752C0 117.591 10.3861 128 23.1981 128H107.802C120.614 128 131 117.591 131 104.752V23.2482C131 10.4086 120.614 0 107.802 0Z" fill="#330000"/>
<path d="M63.4803 76.8164H43.1791L39.0502 89.6739C38.9957 89.9095 38.8599 90.1182 38.6669 90.2633C38.4738 90.4084 38.2358 90.4806 37.9949 90.467H27.7137C27.1263 90.467 26.9214 90.1436 27.0989 89.4968L44.6749 38.7598C44.8457 38.2311 45.0215 37.6321 45.2025 36.963C45.4307 35.7873 45.5482 34.5928 45.5534 33.3951C45.543 33.3242 45.5466 33.252 45.5641 33.1826C45.5817 33.1131 45.6128 33.0479 45.6557 32.9906C45.6986 32.9333 45.7523 32.8851 45.8139 32.8488C45.8755 32.8125 45.9437 32.7887 46.0145 32.779C46.0654 32.7713 46.1172 32.7713 46.1682 32.779H60.1403C60.5501 32.779 60.7832 32.9253 60.8447 33.2179L80.7924 89.584C80.9692 90.1693 80.7924 90.4645 80.2648 90.4645H68.8412C68.6451 90.4863 68.4477 90.4358 68.286 90.3225C68.1243 90.2091 68.0094 90.0406 67.9626 89.8484L63.4803 76.8164ZM46.3449 65.7121H60.2274C59.8773 64.5364 59.4675 63.2153 58.9979 61.7488C58.5284 60.2823 58.0306 58.7113 57.5047 57.036L55.9218 52.0178C55.3941 50.3442 54.9109 48.7287 54.472 47.1715C54.0332 45.6143 53.6345 44.1939 53.2759 42.9105H53.1888C52.6938 45.2884 52.0774 47.6393 51.3421 49.954C50.5224 52.5979 49.6875 55.2991 48.8371 58.0576C47.9867 60.8162 47.156 63.3676 46.3449 65.7121Z" fill="#FF9A00"/>
<path d="M92.6542 42.1173C91.7579 42.1531 90.8641 41.999 90.0313 41.665C89.1984 41.3311 88.4452 40.8248 87.8209 40.1793C87.1983 39.5057 86.7148 38.7153 86.3983 37.8536C86.0818 36.9919 85.9385 36.0759 85.9767 35.1585C85.9463 34.252 86.1066 33.3493 86.4473 32.509C86.788 31.6687 87.3014 30.9097 87.9541 30.2814C88.6005 29.6596 89.3633 29.1721 90.1985 28.847C91.0337 28.5219 91.9249 28.3656 92.8207 28.3871C94.9295 28.3871 96.5841 29.0185 97.7845 30.2814C99.0023 31.6055 99.647 33.3592 99.5775 35.1585C99.6145 36.0797 99.4662 36.9989 99.1414 37.8614C98.8167 38.724 98.3221 39.5122 97.6872 40.1793C97.0265 40.832 96.2385 41.3411 95.3724 41.6745C94.5064 42.008 93.581 42.1587 92.6542 42.1173ZM86.5915 89.5841V47.4872C86.5915 46.9585 86.8245 46.6941 87.2933 46.6941H98.0996C98.5658 46.6941 98.8014 46.9508 98.8014 47.4872V89.5841C98.8014 90.1693 98.5683 90.4645 98.0996 90.4645H87.3829C86.8553 90.4671 86.5915 90.1719 86.5915 89.5841Z" fill="#FF9A00"/>
</g>
<defs>
<clipPath id="clip0_124_4297">
<rect width="131" height="128" fill="white"/>
</clipPath>
</defs>
</svg>
