<?xml version="1.0" encoding="utf-8"?>
<!-- Generator: Adobe Illustrator 27.4.1, SVG Export Plug-In . SVG Version: 6.00 Build 0)  -->
<svg version="1.1" id="Layer_1" xmlns="http://www.w3.org/2000/svg" xmlns:xlink="http://www.w3.org/1999/xlink" x="0px" y="0px"
	 viewBox="0 0 63.45 20.56" style="enable-background:new 0 0 63.45 20.56;" xml:space="preserve">
<style type="text/css">
	.st0{fill:#4A5048;}
	.st1{fill:#E85125;}
</style>
<path class="st0" d="M1.16,16.11h0.19c0.1,0.44,0.23,0.88,0.41,1.33s0.4,0.86,0.67,1.23c0.27,0.37,0.59,0.67,0.96,0.9
	s0.79,0.35,1.27,0.35c0.7,0,1.26-0.15,1.67-0.44s0.72-0.69,0.92-1.17s0.34-1.05,0.4-1.7c0.06-0.64,0.09-1.31,0.11-2.02V2.98
	c0-0.33-0.02-0.63-0.05-0.89S7.61,1.6,7.5,1.41C7.38,1.22,7.22,1.07,7.01,0.97S6.53,0.81,6.17,0.81V0.59
	c0.7,0.03,1.29,0.05,1.75,0.06s0.9,0.01,1.3,0.01c0.46,0,0.93,0,1.39-0.01c0.46-0.01,51.79-0.03,52.53-0.06v0.23
	c-0.35,0-51.36,0.05-51.57,0.15c-0.21,0.1-0.37,0.24-0.48,0.42c-0.11,0.18-0.18,0.4-0.22,0.67c-0.03,0.26-0.05,0.55-0.05,0.87v9.56
	c-0.03,2.56-0.63,4.49-1.8,5.8c-1.17,1.3-2.9,1.95-5.18,1.95c-1.1,0-2.34-0.16-3.7-0.47L1.16,16.11z"/>
<path class="st0" d="M11.35,18.86c0.62,0,1.02-0.15,1.2-0.46c0.18-0.3,0.28-0.78,0.29-1.42v-6.71c0-0.37,0-0.7-0.01-0.98
	s-0.04-0.53-0.11-0.72c-0.07-0.2-0.19-0.35-0.35-0.46c-0.16-0.11-0.4-0.17-0.72-0.2V7.74c0.27-0.02,0.56-0.06,0.88-0.11
	c0.32-0.05,0.64-0.11,0.97-0.18c0.32-0.07,0.64-0.15,0.96-0.24c0.32-0.09,0.6-0.19,0.85-0.29v10.17c0.01,0.61,0.12,1.05,0.31,1.34
	c0.2,0.29,0.59,0.43,1.18,0.43v0.18c-0.38-0.02-0.83-0.04-1.35-0.05c-0.52-0.01-1.07-0.02-1.65-0.02c-0.4,0-0.82,0.01-1.23,0.02
	c-0.42,0.01-0.83,0.03-1.23,0.05V18.86z M12.5,5.19c0-0.37,0.12-0.68,0.36-0.94c0.24-0.26,0.55-0.39,0.93-0.39
	c0.4,0,0.72,0.13,0.95,0.39c0.23,0.26,0.35,0.57,0.35,0.93c0,0.35-0.12,0.65-0.37,0.91s-0.56,0.39-0.94,0.39
	c-0.37,0-0.67-0.11-0.92-0.34C12.62,5.91,12.5,5.59,12.5,5.19z"/>
<path class="st0" d="M15.42,6.92c0.51,0.02,0.95,0.04,1.35,0.06C17.16,7,17.55,7,17.95,7c0.37,0,0.74-0.01,1.13-0.03
	c0.39-0.02,0.83-0.04,1.34-0.06v0.14c-0.53,0.2-0.83,0.46-0.91,0.77c-0.08,0.31-0.03,0.69,0.15,1.14c0.49,1.07,0.95,2.08,1.38,3.02
	c0.19,0.4,0.38,0.81,0.56,1.22c0.18,0.41,0.36,0.8,0.53,1.18c0.17,0.37,0.33,0.72,0.46,1.03c0.14,0.31,0.25,0.56,0.34,0.75
	c0.46-0.71,0.96-1.4,1.52-2.05c0.56-0.65,1.12-1.28,1.69-1.89c-0.25-0.57-0.52-1.17-0.81-1.79c-0.28-0.62-0.55-1.2-0.79-1.74
	c-0.28-0.56-0.53-0.95-0.77-1.18c-0.23-0.23-0.47-0.37-0.71-0.45V6.92c0.51,0.02,0.95,0.04,1.35,0.06S25.19,7,25.57,7
	c0.35,0,0.72-0.01,1.1-0.03c0.38-0.02,0.81-0.04,1.29-0.06c0.76-0.05,1.29,0,1.59,0.15c0.3,0.15,0.43,0.38,0.38,0.7
	c-0.05,0.32-0.25,0.7-0.6,1.17c-0.35,0.46-0.79,0.99-1.32,1.57c0.24,0.54,0.44,0.98,0.6,1.32c0.16,0.34,0.32,0.7,0.48,1.05
	c0.16,0.36,0.35,0.77,0.57,1.23c0.21,0.46,0.49,1.08,0.83,1.84c0.33-0.77,0.66-1.56,0.99-2.36c0.29-0.68,0.6-1.42,0.94-2.22
	c0.33-0.8,0.66-1.57,0.98-2.31c0.25-0.61,0.26-1.07,0.03-1.4c-0.23-0.33-0.77-0.53-1.6-0.62V6.92c0.3,0.02,0.59,0.04,0.86,0.05
	c0.27,0.01,0.53,0.02,0.79,0.02c0.3,0,0.6-0.01,0.9-0.02c0.3-0.01,0.6-0.03,0.9-0.05v0.12c-0.37,0.2-0.67,0.45-0.92,0.75
	c-0.25,0.3-0.47,0.67-0.67,1.11c-0.22,0.49-0.44,1.01-0.66,1.55c-0.23,0.55-0.46,1.1-0.7,1.67c-0.24,0.57-0.48,1.13-0.71,1.7
	c-0.23,0.57-0.46,1.1-0.67,1.62c-0.51,1.2-1.01,2.4-1.52,3.61h-0.15c-0.03-0.06-0.13-0.28-0.3-0.67c-0.18-0.39-0.4-0.88-0.68-1.48
	c-0.28-0.6-0.59-1.29-0.95-2.06c-0.35-0.77-0.72-1.58-1.1-2.43c-0.46,0.5-0.91,1.01-1.37,1.54c-0.46,0.53-0.89,1.08-1.29,1.64
	c-0.4,0.57-0.76,1.14-1.07,1.71c-0.32,0.58-0.56,1.16-0.74,1.74H21.6c-0.03-0.06-0.11-0.26-0.27-0.59
	c-0.15-0.33-0.35-0.76-0.59-1.28c-0.24-0.52-0.52-1.12-0.82-1.8c-0.31-0.68-0.63-1.39-0.98-2.14c-0.34-0.75-0.69-1.51-1.04-2.28
	c-0.35-0.77-0.69-1.52-1.02-2.25c-0.28-0.56-0.53-0.95-0.76-1.18c-0.23-0.23-0.47-0.37-0.72-0.45L15.42,6.92z M28.09,7.11
	c-0.28,0.02-0.49,0.09-0.63,0.2c-0.15,0.11-0.24,0.25-0.29,0.42c-0.05,0.17-0.06,0.37-0.03,0.58c0.03,0.21,0.09,0.43,0.18,0.66
	c0.11,0.26,0.22,0.5,0.32,0.72c0.1,0.22,0.2,0.43,0.28,0.62c0.53-0.57,0.95-1.07,1.27-1.51c0.32-0.43,0.5-0.79,0.55-1.08
	c0.03-0.17-0.01-0.29-0.11-0.38c-0.1-0.09-0.24-0.15-0.41-0.19c-0.17-0.04-0.36-0.05-0.56-0.05C28.45,7.09,28.26,7.1,28.09,7.11z"/>
<path class="st0" d="M39.57,19.03c-0.97,0-1.85-0.16-2.63-0.48c-0.78-0.32-1.45-0.76-2-1.32s-0.97-1.21-1.27-1.96
	s-0.45-1.56-0.45-2.43c0-0.83,0.15-1.61,0.46-2.33c0.3-0.72,0.73-1.35,1.29-1.88c0.56-0.54,1.23-0.95,2.02-1.26
	c0.79-0.3,1.67-0.46,2.64-0.46c0.99,0,1.87,0.16,2.65,0.46c0.78,0.31,1.45,0.73,2.01,1.28c0.56,0.54,0.98,1.18,1.28,1.91
	c0.3,0.73,0.45,1.53,0.45,2.38c0,0.87-0.15,1.67-0.45,2.42c-0.3,0.74-0.73,1.39-1.29,1.93c-0.56,0.54-1.24,0.97-2.04,1.28
	C41.44,18.88,40.55,19.03,39.57,19.03z M35.7,12.86c0,0.38,0.02,0.79,0.07,1.24c0.04,0.45,0.12,0.89,0.24,1.33
	c0.11,0.44,0.27,0.87,0.46,1.28c0.19,0.41,0.43,0.77,0.73,1.09c0.3,0.32,0.64,0.57,1.04,0.76s0.87,0.29,1.41,0.29
	c0.81,0,1.47-0.2,1.97-0.61c0.51-0.4,0.9-0.9,1.18-1.5c0.28-0.6,0.48-1.24,0.58-1.94c0.1-0.7,0.15-1.33,0.15-1.9
	c0-0.38-0.02-0.79-0.07-1.22c-0.04-0.43-0.12-0.87-0.24-1.29c-0.11-0.43-0.27-0.84-0.46-1.24c-0.19-0.4-0.43-0.75-0.72-1.05
	c-0.29-0.3-0.64-0.54-1.04-0.72c-0.4-0.18-0.87-0.27-1.4-0.27s-1,0.09-1.4,0.27c-0.4,0.18-0.75,0.42-1.03,0.72
	c-0.28,0.3-0.52,0.65-0.71,1.04c-0.19,0.39-0.34,0.8-0.46,1.23c-0.11,0.43-0.19,0.86-0.24,1.29C35.72,12.09,35.7,12.49,35.7,12.86z"
	/>
<path class="st0" d="M44.86,18.86c0.62,0,1.02-0.15,1.2-0.46c0.18-0.3,0.28-0.78,0.29-1.42V9.45c0-0.37,0-0.7-0.01-0.98
	c-0.01-0.29-0.04-0.53-0.11-0.72c-0.07-0.2-0.19-0.35-0.35-0.46c-0.16-0.11-0.4-0.17-0.72-0.2V6.92c0.27-0.02,0.56-0.06,0.88-0.11
	c0.32-0.05,0.64-0.11,0.97-0.18c0.32-0.07,0.64-0.15,0.96-0.24c0.32-0.09,0.6-0.19,0.85-0.29v5.16c0.11-0.57,0.28-1.12,0.49-1.63
	c0.21-0.52,0.49-0.97,0.82-1.37c0.33-0.39,0.72-0.71,1.18-0.95c0.46-0.24,0.99-0.37,1.6-0.38c0.97-0.04,1.84,0.08,2.62,0.36
	c0.77,0.27,1.42,0.68,1.96,1.2c0.54,0.53,0.95,1.17,1.24,1.93c0.29,0.76,0.45,1.6,0.47,2.54V17c0.01,0.63,0.11,1.1,0.29,1.4
	c0.18,0.3,0.58,0.46,1.2,0.46v0.18c-0.44-0.02-0.88-0.04-1.32-0.05c-0.44-0.01-0.86-0.02-1.26-0.02c-0.4,0-0.78,0-1.13,0.01
	c-0.35,0.01-0.65,0.01-0.9,0.03c-0.3,0.01-0.57,0.02-0.81,0.04v-0.18c0.34,0,0.61-0.04,0.81-0.11c0.2-0.07,0.34-0.18,0.45-0.33
	c0.1-0.15,0.17-0.34,0.2-0.58c0.03-0.24,0.05-0.52,0.05-0.84v-3.86c0-0.8-0.06-1.56-0.17-2.3C56.5,10.1,56.3,9.45,56,8.89
	c-0.29-0.56-0.69-1.01-1.18-1.33c-0.5-0.32-1.14-0.48-1.92-0.46c-0.69,0.02-1.3,0.22-1.8,0.58c-0.51,0.36-0.92,0.83-1.25,1.4
	c-0.33,0.57-0.58,1.21-0.75,1.91c-0.17,0.7-0.26,1.4-0.27,2.09v4.02c0.01,0.61,0.12,1.05,0.31,1.34c0.2,0.29,0.59,0.43,1.18,0.43
	v0.18c-0.63-0.02-1.14-0.04-1.54-0.06c-0.39-0.02-0.76-0.03-1.1-0.03c-0.37,0-0.75,0.01-1.14,0.03c-0.39,0.02-0.92,0.04-1.57,0.06
	h-0.11V18.86z"/>
<circle class="st1" cx="61.75" cy="17.64" r="1.39"/>
</svg>
