<?xml version="1.0" encoding="utf-8"?>
<!-- Generator: Adobe Illustrator 27.4.1, SVG Export Plug-In . SVG Version: 6.00 Build 0)  -->
<svg version="1.1" id="Layer_1" xmlns="http://www.w3.org/2000/svg" xmlns:xlink="http://www.w3.org/1999/xlink" x="0px" y="0px"
	 viewBox="0 0 77.3 20.6" style="enable-background:new 0 0 77.3 20.6;" xml:space="preserve">
<style type="text/css">
	.st0{fill:#F5F7F2;}
	.st1{fill:#E85125;}
</style>
<path class="st0" d="M1.2,16.1h0.2c0.1,0.4,0.2,0.9,0.4,1.3s0.4,0.9,0.7,1.2c0.3,0.4,0.6,0.7,1,0.9s0.8,0.4,1.3,0.4
	c0.7,0,1.3-0.1,1.7-0.4s0.7-0.7,0.9-1.2s0.3-1,0.4-1.7c0.1-0.6,0.1-1.3,0.1-2V3c0-0.3,0-0.6-0.1-0.9S7.6,1.6,7.5,1.4
	C7.4,1.2,7.2,1.1,7,1S6.5,0.8,6.2,0.8V0.6c0.7,0,1.3,0.1,1.8,0.1s0.9,0,1.3,0c0.5,0,0.9,0,1.4,0s1,0,1.8-0.1v0.2
	c-0.4,0-0.6,0.1-0.8,0.2s-0.4,0.2-0.5,0.4s-0.2,0.4-0.2,0.7c0,0.3-0.1,0.5-0.1,0.9v9.6c0,2.6-0.6,4.5-1.8,5.8c-1.2,1.3-2.9,2-5.2,2
	c-1.1,0-2.3-0.2-3.7-0.5L1.2,16.1z"/>
<path class="st0" d="M13.1,18.9c0.6,0,1-0.1,1.2-0.5c0.2-0.3,0.3-0.8,0.3-1.4v-6.7c0-0.4,0-0.7,0-1s0-0.5-0.1-0.7
	c-0.1-0.2-0.2-0.4-0.4-0.5c-0.2-0.1-0.4-0.2-0.7-0.2V7.7c0.3,0,0.6-0.1,0.9-0.1s0.6-0.1,1-0.2c0.3-0.1,0.6-0.2,1-0.2
	C16.5,7.1,16.8,7,17,6.9v10.2c0,0.6,0.1,1,0.3,1.3c0.2,0.3,0.6,0.4,1.2,0.4V19c-0.4,0-0.8,0-1.4,0c-0.5,0-1.1,0-1.6,0
	c-0.4,0-0.8,0-1.2,0c-0.4,0-0.8,0-1.2,0L13.1,18.9L13.1,18.9z M14.2,5.2c0-0.4,0.1-0.7,0.4-0.9s0.6-0.4,0.9-0.4c0.4,0,0.7,0.1,1,0.4
	c0.2,0.3,0.4,0.6,0.4,0.9c0,0.3-0.1,0.7-0.4,0.9c-0.2,0.3-0.6,0.4-0.9,0.4c-0.4,0-0.7-0.1-0.9-0.3C14.3,5.9,14.2,5.6,14.2,5.2z"/>
<path class="st0" d="M19.1,6.9c0.5,0,1,0,1.4,0.1c0.4,0,0.8,0,1.2,0c0.4,0,0.7,0,1.1,0s0.8,0,1.3-0.1V7c-0.5,0.2-0.8,0.5-0.9,0.8
	c-0.1,0.3,0,0.7,0.1,1.1c0.5,1.1,1,2.1,1.4,3c0.2,0.4,0.4,0.8,0.6,1.2s0.4,0.8,0.5,1.2c0.2,0.4,0.3,0.7,0.5,1c0.1,0.3,0,0.1,0.1,0.3
	c0.6-0.7,0.9-1.2,1.5-1.9c0.6-0.6,1.2-1.4,1.7-2c-0.2-0.6-0.4-0.8-0.6-1.4c-0.3-0.6-0.5-1.2-0.8-1.7c-0.3-0.6-0.5-0.9-0.8-1.2
	c-0.2-0.2-0.5-0.4-0.7-0.4V6.9c0.5,0,1,0,1.4,0.1s0.8,0,1.2,0c0.4,0,0.7,0,1.1,0c0.4,0,0.8,0,1.3-0.1c0.8-0.1,1.3,0,1.6,0.2
	s0.4,0.4,0.4,0.7c0,0.3-0.2,0.7-0.6,1.2c-0.3,0.5-0.8,1-1.3,1.6c0.2,0.5,0.4,1,0.6,1.3c0.2,0.3,0.3,0.7,0.5,1.1
	c0.2,0.4,0.3,0.8,0.6,1.2c0.2,0.5,0.3,0.6,0.6,1.4c0.3-0.8,0.5-1.2,0.8-2c0.3-0.7,0.6-1.4,0.9-2.2c0.3-0.8,0.8-1.7,1.1-2.4
	C37,8.2,37.3,8,37.1,7.6c-0.2-0.3-0.8-0.5-1.6-0.6V6.9c0.3,0,0.6,0,0.9,0.1s0.5,0,0.8,0c0.3,0,0.6,0,0.9,0c0.3,0,0.6,0,0.9-0.1V7
	c-0.4,0.2-0.7,0.4-0.9,0.8s-0.5,0.7-0.7,1.1c-0.2,0.5-0.4,1-0.7,1.6c-0.2,0.6-0.5,1.1-0.7,1.7s-0.5,1.1-0.7,1.7s-0.5,1.1-0.7,1.6
	c-0.5,1.2-1,2.4-1.5,3.6h-0.2c0-0.1-0.1-0.3-0.3-0.7c-0.2-0.4-0.4-0.9-0.7-1.5c-0.3-0.6-0.6-1.3-1-2.1c-0.4-0.8-0.7-1.6-1.1-2.4
	c-0.5,0.5-0.9,1-1.4,1.5c-0.5,0.5-0.9,1.1-1.3,1.6c-0.4,0.6-0.8,1.1-1.1,1.7c-0.3,0.6-0.6,1.2-0.7,1.7h-0.1c0-0.1-0.1-0.3-0.3-0.6
	c-0.1-0.3-0.4-0.8-0.6-1.3s-0.5-1.1-0.8-1.8c-0.3-0.7-0.6-1.4-1-2.1c-0.3-0.8-0.7-1.5-1-2.3s-0.7-1.5-1-2.2c-0.3-0.6-0.5-1-0.8-1.2
	s-0.5-0.4-0.7-0.4L19.1,6.9z M31.7,7.1c-0.3,0-0.5,0.1-0.6,0.2s-0.2,0.2-0.3,0.4c0,0.2-0.1,0.4,0,0.6s0.1,0.4,0.2,0.7
	c0.1,0.3,0.2,0.5,0.3,0.7s0.1,0.1,0.1,0.3c0.5-0.6,0.9-0.9,1.3-1.4c0.3-0.4,0.5-0.7,0.6-1c0-0.2,0-0.3-0.1-0.4
	c-0.1-0.1-0.2-0.1-0.3-0.2s-0.4,0-0.6,0C32.1,7.1,31.9,7.1,31.7,7.1z"/>
<path class="st0" d="M45.8,19c-1,0-1.8-0.2-2.6-0.5c-0.8-0.3-1.5-0.8-2-1.3s-1-1.2-1.3-2s-0.5-1.6-0.5-2.4c0-0.8,0.2-1.6,0.5-2.3
	c0.3-0.7,0.7-1.4,1.3-1.9c0.6-0.5,1.2-0.9,2-1.3c0.8-0.3,1.7-0.5,2.6-0.5c1,0,1.9,0.2,2.7,0.5c0.8,0.3,1.5,0.7,2,1.3
	c0.6,0.5,1,1.2,1.3,1.9c0.3,0.7,0.5,1.5,0.5,2.4c0,0.9-0.2,1.7-0.5,2.4c-0.3,0.7-0.7,1.4-1.3,1.9s-1.2,1-2,1.3
	C47.7,18.9,46.8,19,45.8,19z M41.9,12.9c0,0.4,0,0.8,0.1,1.2c0,0.4,0.1,0.9,0.2,1.3c0.1,0.4,0.3,0.9,0.5,1.3s0.4,0.8,0.7,1.1
	s0.6,0.6,1,0.8s0.9,0.3,1.4,0.3c0.8,0,1.5-0.2,2-0.6c0.5-0.4,0.9-0.9,1.2-1.5s0.5-1.2,0.6-1.9c0.1-0.7,0.2-1.3,0.2-1.9
	c0-0.4,0-0.8-0.1-1.2c0-0.4-0.1-0.9-0.2-1.3C49.3,10,49.2,9.5,49,9.1s-0.4-0.8-0.7-1.1s-0.6-0.5-1-0.7c-0.4-0.2-0.9-0.3-1.4-0.3
	c-0.5,0-1,0.1-1.4,0.3s-0.8,0.4-1,0.7s-0.5,0.6-0.7,1s-0.3,0.8-0.5,1.2c-0.1,0.4-0.2,0.9-0.2,1.3C41.9,12.1,41.9,12.5,41.9,12.9z"/>
<path class="st0" d="M53.7,18.9c0.6,0,1-0.1,1.2-0.5c0.2-0.3,0.3-0.8,0.3-1.4V9.4c0-0.4,0-0.7,0-1c0-0.3,0-0.5-0.1-0.7
	c-0.1-0.2-0.2-0.3-0.3-0.5S54.4,7.1,54,7.1V6.9c0.3,0,0.6-0.1,0.9-0.1s0.6-0.1,1-0.2c0.3-0.1,0.6-0.2,1-0.2c0.3-0.1,0.6-0.2,0.8-0.3
	v4.6c0.2-0.6,0.2-0.7,0.5-1.2C58.5,9,58.7,8.6,59,8.3c0.3-0.4,0.7-0.7,1.2-0.9s1-0.4,1.6-0.4c1,0,1.8,0.1,2.6,0.3
	c0.8,0.3,1.4,0.7,2,1.2c0.5,0.5,0.9,1.2,1.2,1.9s0.4,1.6,0.5,2.5V17c0,0.6,0.1,1.1,0.3,1.4s0.6,0.5,1.2,0.5V19c-0.4,0-0.9,0-1.3,0
	c-0.4,0-0.9,0-1.3,0s-0.8,0-1.1,0s-0.7,0-0.9,0c-0.3,0-0.6,0-0.8,0v-0.2c0.3,0,0.6,0,0.8-0.1s0.3-0.2,0.4-0.3
	c0.1-0.1,0.2-0.3,0.2-0.6s0.1-0.5,0.1-0.8v-3.9c0-0.8-0.1-1.6-0.2-2.3s-0.3-1.4-0.6-1.9c-0.3-0.6-0.7-0.9-1.2-1.1
	c-0.4-0.2-1.1-0.4-1.9-0.4c-0.7,0-1.2,0.2-1.7,0.5s-0.6,0.5-0.8,0.8c-0.2,0.2-0.8,1.2-1.1,2.1c-0.3,0.9-0.5,1.2-0.5,2.4v4
	c0,0.6,0.1,1,0.3,1.3c0.2,0.3,0.6,0.4,1.2,0.4v0.2c-0.6,0-1.1,0-1.5-0.1c-0.4,0-0.8,0-1.1,0c-0.4,0-0.8,0-1.1,0s-0.9,0-1.6,0.1h-0.1
	L53.7,18.9L53.7,18.9z"/>
<circle class="st1" cx="72.5" cy="17.6" r="1.4"/>
</svg>
