<svg width="87" height="87" viewBox="0 0 87 87" fill="none" xmlns="http://www.w3.org/2000/svg">
<g clip-path="url(#clip0_124_4311)">
<path d="M5.23479 3.75213L53.3745 0.196437C59.2879 -0.310773 60.8069 0.0311368 64.5253 2.73423L79.8921 13.5596C82.4264 15.4214 83.2703 15.9286 83.2703 17.9557V77.3272C83.2703 81.0481 81.9192 83.2492 77.189 83.5851L21.2863 86.9711C17.7367 87.139 16.0463 86.6318 14.1871 84.2628L2.871 69.5476C0.84129 66.8393 0 64.8122 0 62.4423V9.66813C0 6.62574 1.35111 4.08882 5.23479 3.75213Z" fill="white"/>
<path fill-rule="evenodd" clip-rule="evenodd" d="M53.3745 0.197307L5.23479 3.753C1.35111 4.08882 0 6.62661 0 9.66813V62.4423C0 64.8113 0.84129 66.8384 2.871 69.5476L14.1871 84.2619C16.0463 86.6309 17.7367 87.139 21.2863 86.9702L77.1899 83.5859C81.9166 83.2492 83.2712 81.0481 83.2712 77.328V17.9566C83.2712 16.0339 82.5117 15.4797 80.2758 13.8389L64.5253 2.73423C60.8078 0.0311368 59.2879 -0.310773 53.3745 0.196437V0.197307ZM22.5504 16.9848C17.9855 17.2919 16.9502 17.3615 14.3576 15.2535L7.76649 10.0109C7.09659 9.33231 7.43328 8.4858 9.12108 8.31702L55.399 4.93533C59.2853 4.59603 61.3089 5.95062 62.8288 7.13382L70.7658 12.8845C71.1051 13.0559 71.949 14.0677 70.9337 14.0677L23.142 16.9448L22.5504 16.9848ZM17.2286 76.8208V26.4191C17.2286 24.218 17.9046 23.2027 19.9282 23.0322L74.82 19.8184C76.6818 19.6505 77.5231 20.8337 77.5231 23.0313V73.0972C77.5231 75.2983 77.1838 77.1601 74.1449 77.328L21.6169 80.373C18.578 80.5409 17.2295 79.5291 17.2295 76.8208H17.2286ZM69.0806 29.1213C69.4173 30.6438 69.0806 32.1663 67.5581 32.3403L65.0264 32.8423V70.0548C62.8279 71.238 60.8043 71.914 59.113 71.914C56.4099 71.914 55.7348 71.0675 53.7103 68.5323L37.1542 42.4845V67.6858L42.3916 68.8716C42.3916 68.8716 42.3916 71.9166 38.166 71.9166L26.5167 72.5926C26.1774 71.914 26.5167 70.2236 27.6973 69.8869L30.7397 69.043V35.722L26.5176 35.3801C26.1783 33.8576 27.0222 31.6591 29.3886 31.4886L41.8879 30.6473L59.1139 57.0318V33.6897L54.723 33.1851C54.3837 31.3207 55.7348 29.9661 57.4226 29.8008L69.0806 29.1213Z" fill="black"/>
</g>
<defs>
<clipPath id="clip0_124_4311">
<rect width="87" height="87" fill="white"/>
</clipPath>
</defs>
</svg>
