<svg width="121" height="118" viewBox="0 0 121 118" fill="none" xmlns="http://www.w3.org/2000/svg">
<g clip-path="url(#clip0_125_4774)">
<path d="M21.4271 0H99.5729C111.421 0 121 9.5812 121 21.4316V96.5684C121 108.419 111.421 118 99.5729 118H21.4271C9.57917 118 0 108.419 0 96.5684V21.4316C0 9.5812 9.57917 0 21.4271 0Z" fill="#001E36"/>
<path d="M27.2251 82.7514V30.8617C27.2251 30.5087 27.3763 30.307 27.7293 30.307C28.5863 30.307 29.393 30.307 30.5526 30.2565C31.7626 30.2061 33.023 30.2061 34.3843 30.1557C35.7455 30.1052 37.2076 30.1052 38.7705 30.0548C40.3334 30.0044 41.8459 30.0044 43.3584 30.0044C47.4926 30.0044 50.9209 30.5087 53.7443 31.5676C56.2651 32.4249 58.5843 33.8369 60.5001 35.7027C62.1134 37.3164 63.3738 39.283 64.1805 41.4514C64.9368 43.5694 65.3401 45.7377 65.3401 48.007C65.3401 52.3437 64.3318 55.9241 62.3151 58.748C60.2984 61.5719 57.4751 63.6899 54.198 64.9001C50.7697 66.1608 46.9884 66.6147 42.8543 66.6147C41.6443 66.6147 40.8376 66.6147 40.3334 66.5642C39.8293 66.5138 39.1234 66.5138 38.1655 66.5138V82.701C38.2159 83.054 37.9638 83.3565 37.6109 83.407C37.5605 83.407 37.5101 83.407 37.4093 83.407H27.8301C27.4268 83.407 27.2251 83.2053 27.2251 82.7514ZM38.2159 40.0394V56.983C38.9218 57.0335 39.5772 57.0839 40.1822 57.0839H42.8543C44.8205 57.0839 46.7868 56.7813 48.6522 56.1762C50.2655 55.7223 51.6772 54.7642 52.7863 53.5035C53.8451 52.2429 54.3493 50.5283 54.3493 48.3095C54.3997 46.7463 53.9963 45.183 53.1897 43.8215C52.3326 42.5104 51.1226 41.5018 49.6605 40.9471C47.7951 40.1907 45.7784 39.8882 43.7113 39.9386C42.4005 39.9386 41.2409 39.9386 40.283 39.989C39.2747 39.9386 38.5688 39.989 38.2159 40.0394Z" fill="#31A8FF"/>
<path d="M96.7999 53.9071C95.2874 53.1002 93.674 52.5455 91.9599 52.1925C90.0944 51.7891 88.229 51.537 86.3132 51.537C85.3049 51.4866 84.2461 51.6378 83.2882 51.89C82.6328 52.0413 82.0782 52.3943 81.7253 52.8985C81.4732 53.302 81.322 53.8062 81.322 54.2601C81.322 54.7139 81.5236 55.1678 81.8261 55.5712C82.2799 56.1259 82.8849 56.5797 83.5403 56.9327C84.6999 57.5378 85.9099 58.0925 87.1199 58.5968C89.8424 59.5045 92.464 60.7652 94.884 62.278C96.5478 63.337 97.909 64.749 98.867 66.4635C99.6736 68.0772 100.077 69.8421 100.027 71.6575C100.077 74.0276 99.3711 76.3977 98.0603 78.3643C96.6486 80.3814 94.6824 81.9447 92.4136 82.8524C89.9432 83.9114 86.9182 84.4661 83.2882 84.4661C80.969 84.4661 78.7003 84.2643 76.4315 83.8105C74.667 83.5079 72.9024 82.9532 71.289 82.1968C70.9361 81.9951 70.684 81.6421 70.7345 81.2387V72.4643C70.7345 72.3131 70.7849 72.1114 70.9361 72.0105C71.0874 71.9096 71.2386 71.9601 71.3899 72.0609C73.3561 73.2208 75.4232 74.0276 77.6415 74.5319C79.5574 75.0361 81.574 75.2883 83.5907 75.2883C85.5065 75.2883 86.8678 75.0361 87.7753 74.5823C88.582 74.2293 89.1365 73.372 89.1365 72.4643C89.1365 71.7584 88.7332 71.1028 87.9265 70.4472C87.1199 69.7917 85.4561 69.0353 82.9857 68.0772C80.4145 67.1695 78.0449 65.9592 75.8265 64.4464C74.2636 63.337 72.9528 61.8746 71.9949 60.1601C71.1882 58.5464 70.7849 56.7814 70.8353 55.0165C70.8353 52.8481 71.4403 50.7806 72.5494 48.9148C73.8099 46.8977 75.6753 45.284 77.8432 44.2755C80.2128 43.0652 83.1874 42.5105 86.767 42.5105C88.834 42.5105 90.9515 42.6618 93.0186 42.9643C94.5311 43.1661 95.9932 43.5695 97.3545 44.1242C97.5561 44.1746 97.7578 44.3763 97.8586 44.578C97.909 44.7797 97.9595 44.9814 97.9595 45.1831V53.4028C97.9595 53.6045 97.8586 53.8062 97.7074 53.9071C97.2536 54.0079 97.0015 54.0079 96.7999 53.9071Z" fill="#31A8FF"/>
</g>
<defs>
<clipPath id="clip0_125_4774">
<rect width="121" height="118" fill="white"/>
</clipPath>
</defs>
</svg>
